<svg width="108" height="46" viewBox="0 0 108 46" fill="none" xmlns="http://www.w3.org/2000/svg">
<g clip-path="url(#clip0_587_22573)">
<path d="M19.9018 6.66162C18.6403 8.15442 16.6218 9.33184 14.6034 9.16364C14.3511 7.14521 15.3393 5.00062 16.4957 3.67602C17.7572 2.14117 19.9649 1.04785 21.752 0.963745C21.9623 3.06628 21.1423 5.12677 19.9018 6.66162ZM21.731 9.56312C18.8085 9.39492 16.3065 11.2241 14.9188 11.2241C13.5101 11.2241 11.3865 9.64723 9.07373 9.68928C6.0671 9.73133 3.27072 11.4344 1.73587 14.1467C-1.41794 19.5712 0.91588 27.6029 3.96456 32.0182C5.45736 34.2049 7.24452 36.6018 9.59936 36.5177C11.8281 36.4336 12.7111 35.0669 15.4024 35.0669C18.1146 35.0669 18.8926 36.5177 21.2474 36.4756C23.6864 36.4336 25.2212 34.289 26.714 32.1023C28.4171 29.6213 29.1109 27.2034 29.153 27.0773C29.1109 27.0352 24.4433 25.2481 24.4012 19.8656C24.3592 15.3661 28.0807 13.2215 28.2489 13.0954C26.1463 9.98363 22.8664 9.64723 21.731 9.56312ZM38.6144 3.46576V36.2443H43.7025V25.0378H50.746C57.1798 25.0378 61.7002 20.6225 61.7002 14.2308C61.7002 7.83904 57.2639 3.46576 50.9142 3.46576H38.6144ZM43.7025 7.75494H49.5686C53.9839 7.75494 56.507 10.1098 56.507 14.2518C56.507 18.3938 53.9839 20.7696 49.5476 20.7696H43.7025V7.75494ZM70.9935 36.4966C74.1893 36.4966 77.1539 34.8777 78.4995 32.3126H78.6046V36.2443H83.3143V19.9286C83.3143 15.1979 79.5298 12.1492 73.7057 12.1492C68.3022 12.1492 64.3074 15.24 64.1602 19.4871H68.7437C69.1222 17.4687 70.9935 16.1441 73.5586 16.1441C76.6703 16.1441 78.4154 17.5948 78.4154 20.265V22.0732L72.0658 22.4517C66.1576 22.8091 62.9618 25.227 62.9618 29.4321C62.9618 33.6792 66.2628 36.4966 70.9935 36.4966ZM72.3601 32.6069C69.6478 32.6069 67.9238 31.3034 67.9238 29.306C67.9238 27.2455 69.5848 26.047 72.7596 25.8578L78.4154 25.5004V27.3506C78.4154 30.4203 75.8083 32.6069 72.3601 32.6069ZM89.6009 45.1591C94.5629 45.1591 96.8967 43.2668 98.9362 37.5269L107.872 12.4646H102.7L96.7075 31.829H96.6024L90.6101 12.4646H85.2907L93.9111 36.3284L93.4486 37.7792C92.6706 40.2391 91.4091 41.1853 89.1594 41.1853C88.7599 41.1853 87.982 41.1432 87.6666 41.1012V45.0329C87.9609 45.117 89.2225 45.1591 89.6009 45.1591Z" fill="white"/>
</g>
<defs>
<clipPath id="clip0_587_22573">
<rect width="107.65" height="44.1953" fill="white" transform="translate(0.221191 0.963745)"/>
</clipPath>
</defs>
</svg>
