<svg width="109" height="37" viewBox="0 0 109 37" fill="none" xmlns="http://www.w3.org/2000/svg">
<g clip-path="url(#clip0_587_22531)">
<path d="M45.7653 20.8252H0.0166016V36.0657H45.7653V20.8252Z" fill="#84B740"/>
<path d="M45.7653 0.0294189H0.0166016V15.2835H45.7653V0.0294189Z" fill="#259BD6"/>
<path d="M91.5139 32.9688L91.3101 33.0096C90.6038 33.1454 90.3457 33.1998 89.8295 33.1998C88.6342 33.1998 87.2215 32.5885 87.2215 29.7088C87.2215 28.2282 87.466 26.2587 89.6937 26.2587H89.7073C90.0876 26.2858 90.5223 26.3266 91.3373 26.5711L91.5139 26.6254V32.9688ZM91.8806 18.6112L91.5139 18.6792V24.0038L91.1879 23.9087L91.0928 23.8816C90.726 23.7729 89.8839 23.5284 89.0689 23.5284C84.6135 23.5284 83.6763 26.8971 83.6763 29.7224C83.6763 33.5937 85.8496 35.8213 89.6394 35.8213C91.2422 35.8213 92.4239 35.6583 93.6193 35.2644C94.7195 34.9113 95.1134 34.4087 95.1134 33.3356V18.0543C94.0539 18.2445 92.9537 18.4347 91.8806 18.6112Z" fill="white"/>
<path d="M104.758 33.0639L104.567 33.1182L103.888 33.2948C103.25 33.4578 102.679 33.5529 102.245 33.5529C101.199 33.5529 100.574 33.0367 100.574 32.1538C100.574 31.5833 100.832 30.6189 102.544 30.6189H104.758V33.0639ZM103.196 23.4604C101.824 23.4604 100.411 23.7049 98.6587 24.2483L97.5177 24.5879L97.898 27.1687L99.0118 26.802C100.18 26.4216 101.633 26.1771 102.72 26.1771C103.209 26.1771 104.703 26.1771 104.703 27.7935V28.4999H102.625C98.8353 28.4999 97.083 29.7088 97.083 32.3032C97.083 34.5173 98.6994 35.8485 101.416 35.8485C102.258 35.8485 103.426 35.6855 104.432 35.441L104.486 35.4274L104.54 35.441L104.88 35.4953C105.939 35.6855 107.04 35.8756 108.113 36.0794V27.6034C108.113 24.8595 106.456 23.4604 103.196 23.4604Z" fill="white"/>
<path d="M78.3645 33.0639L78.1744 33.1182L77.4952 33.2948C76.8568 33.4578 76.2999 33.5529 75.8516 33.5529C74.8057 33.5529 74.1809 33.0367 74.1809 32.1538C74.1809 31.5833 74.439 30.6189 76.1369 30.6189H78.351L78.3645 33.0639ZM76.816 23.4604C75.4305 23.4604 74.0314 23.7049 72.2792 24.2483L71.1382 24.5879L71.5185 27.1687L72.6324 26.802C73.8005 26.4216 75.254 26.1771 76.3406 26.1771C76.8296 26.1771 78.3238 26.1771 78.3238 27.7935V28.4999H76.2455C72.4558 28.4999 70.6899 29.7088 70.6899 32.3032C70.6899 34.5173 72.3064 35.8485 75.0366 35.8485C75.8788 35.8485 77.047 35.6855 78.0521 35.441L78.1065 35.4274L78.1608 35.441L78.4868 35.4953C79.5599 35.6855 80.6465 35.8756 81.7196 36.093V27.617C81.7332 24.846 80.076 23.4604 76.816 23.4604Z" fill="white"/>
<path d="M64.062 23.4881C62.3369 23.4881 60.9106 24.0586 60.3809 24.3031L60.2451 24.371L60.1228 24.2759C59.3893 23.7462 58.3162 23.4745 56.8221 23.4745C55.5045 23.4745 54.2684 23.6647 52.9236 24.0586C51.769 24.4117 51.3208 24.9687 51.3208 26.0146V35.6995H54.934V26.7481L55.1106 26.6937C55.8441 26.4492 56.2787 26.4085 56.6998 26.4085C57.7457 26.4085 58.2755 26.9654 58.2755 28.0521V35.7131H61.8343V27.9027C61.8343 27.4408 61.7392 27.1692 61.7256 27.1148L61.6034 26.8839L61.8479 26.7752C62.3912 26.5307 62.9889 26.4085 63.6137 26.4085C64.3336 26.4085 65.1894 26.6937 65.1894 28.0521V35.7131H68.7347V27.6989C68.7347 24.86 67.2133 23.4881 64.062 23.4881Z" fill="white"/>
<path d="M102.096 9.97231C101.566 9.97231 100.683 9.91798 99.9901 9.78214L99.7864 9.74139V4.5118C99.7864 4.07714 99.7049 3.80547 99.6913 3.76472L99.5826 3.54738L99.8136 3.4523C99.8679 3.42513 99.9222 3.41155 99.9901 3.38438L100.031 3.35722C100.112 3.33005 100.194 3.30288 100.275 3.27572C100.316 3.26213 100.343 3.24855 100.37 3.24855C101.172 3.03122 101.905 3.05838 102.231 3.03122H102.245C104.459 3.03122 104.717 5.0008 104.717 6.48139C104.704 9.36106 103.277 9.97231 102.096 9.97231ZM102.082 0.0292969C102.055 0.0292969 102.014 0.0292969 101.987 0.0292969C99.9086 0.0292969 97.776 0.599798 97.0154 1.71363C96.6079 2.25697 96.377 2.93613 96.3634 3.73755V9.13014C96.3634 9.59198 96.2683 9.76856 96.2547 9.80931L96.1325 10.0402H89.5717V6.29122H89.5581C89.4766 2.33847 87.1403 0.16513 83.758 0.16513H83.3641H80.4573C80.3214 1.12955 80.2128 1.80872 80.0769 2.77313H83.3641C85.0892 2.77313 85.9993 4.24014 85.9993 6.49497V10.2711L85.7684 10.1489C85.7276 10.1353 85.4424 10.0402 84.9941 10.0402H79.3163C79.2076 10.7601 79.0718 11.6974 78.9224 12.6346H96.377C96.9746 12.5124 97.6674 12.4037 98.265 12.3086C99.148 12.7433 100.792 12.9742 101.919 12.9742C105.709 12.9742 108.167 10.4341 108.167 6.52214C108.154 2.65088 105.777 0.110797 102.082 0.0292969Z" fill="white"/>
<path d="M71.4785 14.2239H71.6415C75.4312 14.2239 77.1971 12.9742 77.1971 9.89081C77.1971 7.67672 75.5807 5.91088 72.864 5.91088H69.3731C68.3272 5.91088 67.7023 5.31322 67.7023 4.30805C67.7023 3.62888 67.9604 2.78671 69.6719 2.78671H77.3057C77.4687 1.79513 77.5503 1.1703 77.6997 0.178711H69.767C66.0723 0.178711 64.2114 1.72721 64.2114 4.30805C64.2114 6.86172 65.8278 8.19289 68.5445 8.19289H72.0354C73.0813 8.19289 73.7062 9.02147 73.7062 9.89081C73.7062 10.4613 73.4481 11.6431 71.7502 11.6431H71.1661L59.987 11.6159H57.9495C56.2244 11.6159 55.0155 10.6379 55.0155 8.36947V6.80739C55.0155 4.44388 55.9527 2.97688 57.9495 2.97688H61.2638C61.4132 1.97171 61.5083 1.3333 61.6441 0.382461H57.5148H57.1209C53.7386 0.382461 51.4023 2.65088 51.3208 6.60364V6.75305V8.36947C51.4023 12.3222 53.7386 14.2103 57.1209 14.2103H57.5148H60.4216L66.4798 14.2239H70.093H71.4785Z" fill="white"/>
</g>
<defs>
<clipPath id="clip0_587_22531">
<rect width="108.151" height="36.0638" fill="white" transform="translate(0.0166016 0.0294189)"/>
</clipPath>
</defs>
</svg>
