<svg width="85" height="66" viewBox="0 0 85 66" fill="none" xmlns="http://www.w3.org/2000/svg">
<g clip-path="url(#clip0_587_22582)">
<path d="M15.6736 65.6269V61.2854C15.6736 59.6247 14.662 58.5373 12.9254 58.5373C12.0571 58.5373 11.113 58.8239 10.4638 59.768C9.95804 58.9756 9.23306 58.5373 8.14559 58.5373C7.42061 58.5373 6.69563 58.7564 6.12238 59.5489V58.6806H4.60498V65.6269H6.12238V61.7912C6.12238 60.5605 6.7715 59.9788 7.7831 59.9788C8.7947 59.9788 9.3005 60.6279 9.3005 61.7912V65.6269H10.8179V61.7912C10.8179 60.5605 11.5429 59.9788 12.4786 59.9788C13.4902 59.9788 13.996 60.6279 13.996 61.7912V65.6269H15.6736ZM38.1818 58.6806H35.7202V56.5815H34.2028V58.6806H32.8287V60.0547H34.2028V63.2412C34.2028 64.8345 34.8519 65.7702 36.5885 65.7702C37.2376 65.7702 37.9626 65.551 38.4684 65.2644L38.03 63.9578C37.5917 64.2444 37.0858 64.3202 36.7234 64.3202C35.9984 64.3202 35.7118 63.8819 35.7118 63.1653V60.0547H38.1733V58.6806H38.1818ZM51.0628 58.5288C50.1945 58.5288 49.6129 58.9672 49.2504 59.5404V58.6721H47.733V65.6185H49.2504V61.7069C49.2504 60.552 49.7562 59.8945 50.7003 59.8945C50.987 59.8945 51.3494 59.9704 51.6445 60.0378L52.0829 58.5878C51.7794 58.5288 51.3494 58.5288 51.0628 58.5288ZM31.5979 59.2538C30.8729 58.748 29.8613 58.5288 28.7738 58.5288C27.0373 58.5288 25.8824 59.3971 25.8824 60.7712C25.8824 61.9261 26.7506 62.5837 28.268 62.7944L28.993 62.8703C29.7855 63.0136 30.2238 63.2328 30.2238 63.5953C30.2238 64.1011 29.6421 64.4636 28.6305 64.4636C27.6189 64.4636 26.8181 64.1011 26.3123 63.7386L25.5873 64.8935C26.3797 65.4752 27.4672 65.7618 28.5547 65.7618C30.5779 65.7618 31.7412 64.8176 31.7412 63.5194C31.7412 62.2886 30.7971 61.6395 29.3555 61.4203L28.6305 61.3444C27.9814 61.2686 27.4756 61.1253 27.4756 60.6953C27.4756 60.1895 27.9814 59.9029 28.7823 59.9029C29.6506 59.9029 30.5189 60.2654 30.9572 60.4846L31.5979 59.2538ZM71.9693 58.5288C71.101 58.5288 70.5193 58.9672 70.1568 59.5404V58.6721H68.6394V65.6185H70.1568V61.7069C70.1568 60.552 70.6626 59.8945 71.6068 59.8945C71.8934 59.8945 72.2559 59.9704 72.5509 60.0378L72.9893 58.6047C72.6943 58.5288 72.2643 58.5288 71.9693 58.5288ZM52.5802 62.1537C52.5802 64.2528 54.0302 65.7702 56.2726 65.7702C57.2842 65.7702 58.0092 65.551 58.7341 64.9778L58.0092 63.747C57.4275 64.1854 56.8542 64.3961 56.1967 64.3961C54.9659 64.3961 54.0976 63.5278 54.0976 62.1537C54.0976 60.8471 54.9659 59.9788 56.1967 59.9113C56.8458 59.9113 57.4275 60.1305 58.0092 60.5605L58.7341 59.3297C58.0092 58.748 57.2842 58.5373 56.2726 58.5373C54.0302 58.5288 52.5802 60.0547 52.5802 62.1537ZM66.6162 62.1537V58.6806H65.0988V59.5489C64.593 58.8997 63.868 58.5373 62.9239 58.5373C60.9681 58.5373 59.4507 60.0547 59.4507 62.1537C59.4507 64.2528 60.9681 65.7702 62.9239 65.7702C63.9355 65.7702 64.6604 65.4077 65.0988 64.7586V65.6269H66.6162V62.1537ZM61.044 62.1537C61.044 60.9229 61.8364 59.9113 63.143 59.9113C64.3738 59.9113 65.2421 60.8555 65.2421 62.1537C65.2421 63.3845 64.3738 64.3961 63.143 64.3961C61.8448 64.3202 61.044 63.3761 61.044 62.1537ZM42.8857 58.5288C40.8625 58.5288 39.4125 59.9788 39.4125 62.1453C39.4125 64.3202 40.8625 65.7618 42.9616 65.7618C43.9732 65.7618 44.9848 65.4752 45.7856 64.8176L45.0606 63.7301C44.479 64.1685 43.754 64.4551 43.0374 64.4551C42.0933 64.4551 41.1576 64.0168 40.9384 62.7944H46.0723C46.0723 62.5752 46.0723 62.4319 46.0723 62.2127C46.1397 59.9788 44.833 58.5288 42.8857 58.5288ZM42.8857 59.8355C43.8299 59.8355 44.479 60.4171 44.6223 61.4962H41.0058C41.1491 60.5605 41.7982 59.8355 42.8857 59.8355ZM80.5848 62.1537V55.9324H79.0674V59.5489C78.5615 58.8997 77.8366 58.5373 76.8924 58.5373C74.9366 58.5373 73.4192 60.0547 73.4192 62.1537C73.4192 64.2528 74.9366 65.7702 76.8924 65.7702C77.904 65.7702 78.629 65.4077 79.0674 64.7586V65.6269H80.5848V62.1537ZM75.0125 62.1537C75.0125 60.9229 75.8049 59.9113 77.1116 59.9113C78.3424 59.9113 79.2107 60.8555 79.2107 62.1537C79.2107 63.3845 78.3424 64.3961 77.1116 64.3961C75.8049 64.3202 75.0125 63.3761 75.0125 62.1537ZM24.2132 62.1537V58.6806H22.6958V59.5489C22.19 58.8997 21.465 58.5373 20.5209 58.5373C18.5651 58.5373 17.0477 60.0547 17.0477 62.1537C17.0477 64.2528 18.5651 65.7702 20.5209 65.7702C21.5325 65.7702 22.2574 65.4077 22.6958 64.7586V65.6269H24.2132V62.1537ZM18.5735 62.1537C18.5735 60.9229 19.3659 59.9113 20.6726 59.9113C21.9034 59.9113 22.7717 60.8555 22.7717 62.1537C22.7717 63.3845 21.9034 64.3961 20.6726 64.3961C19.3659 64.3202 18.5735 63.3761 18.5735 62.1537Z" fill="white"/>
<path d="M53.8866 5.92542H31.0918V46.8785H53.8866V5.92542Z" fill="#FF5A00"/>
<path d="M32.6089 26.4017C32.6089 18.0812 36.5205 10.6965 42.5226 5.92515C38.1053 2.45198 32.5331 0.352905 26.455 0.352905C12.0565 0.352905 0.40625 12.0032 0.40625 26.4017C0.40625 40.8002 12.0565 52.4504 26.455 52.4504C32.5331 52.4504 38.1053 50.3514 42.5226 46.8782C36.512 42.1742 32.6089 34.7221 32.6089 26.4017Z" fill="#EB001B"/>
<path d="M84.6393 26.4017C84.6393 40.8002 72.989 52.4504 58.5906 52.4504C52.5125 52.4504 46.9403 50.3514 42.5229 46.8782C48.601 42.0984 52.4367 34.7221 52.4367 26.4017C52.4367 18.0812 48.5251 10.6965 42.5229 5.92515C46.9319 2.45198 52.5041 0.352905 58.5821 0.352905C72.989 0.352905 84.6393 12.0791 84.6393 26.4017Z" fill="#F79E1B"/>
</g>
<defs>
<clipPath id="clip0_587_22582">
<rect width="84.2328" height="65.417" fill="white" transform="translate(0.40625 0.352905)"/>
</clipPath>
</defs>
</svg>
