<svg width="111" height="30" viewBox="0 0 111 30" fill="none" xmlns="http://www.w3.org/2000/svg">
<g clip-path="url(#clip0_587_22542)">
<path d="M41.3046 6.3988H35.2293C34.8136 6.3988 34.46 6.70084 34.3951 7.11125L31.938 22.69C31.8892 22.9973 32.1272 23.2745 32.439 23.2745H35.3394C35.7552 23.2745 36.1087 22.9725 36.1736 22.5612L36.8363 18.3593C36.9003 17.948 37.2547 17.646 37.6695 17.646H39.5928C43.5947 17.646 45.9044 15.7094 46.5076 11.8718C46.7794 10.1929 46.5191 8.8737 45.733 7.94983C44.8695 6.93536 43.338 6.3988 41.3046 6.3988ZM42.0055 12.0886C41.6733 14.2686 40.0076 14.2686 38.3971 14.2686H37.4803L38.1235 10.1973C38.1617 9.95125 38.3749 9.77003 38.6236 9.77003H39.0438C40.1409 9.77003 41.1758 9.77003 41.7106 10.3954C42.0295 10.7685 42.1272 11.3228 42.0055 12.0886Z" fill="white"/>
<path d="M59.4653 12.0184H56.5561C56.3082 12.0184 56.0941 12.1996 56.0559 12.4456L55.9271 13.2594L55.7237 12.9644C55.0939 12.0503 53.6894 11.7448 52.2876 11.7448C49.0727 11.7448 46.3269 14.1797 45.7921 17.5953C45.5141 19.2991 45.9094 20.9283 46.8759 22.0645C47.7624 23.1092 49.031 23.5445 50.5403 23.5445C53.1306 23.5445 54.5671 21.8789 54.5671 21.8789L54.4374 22.6872C54.3885 22.9964 54.6266 23.2735 54.9366 23.2735H57.5572C57.9738 23.2735 58.3256 22.9715 58.3914 22.5602L59.9637 12.6029C60.0134 12.2964 59.7763 12.0184 59.4653 12.0184ZM55.4101 17.6806C55.1294 19.3427 53.8102 20.4584 52.1277 20.4584C51.2829 20.4584 50.6078 20.1875 50.1743 19.674C49.7443 19.1641 49.5809 18.4383 49.7177 17.63C49.9797 15.9821 51.3211 14.8299 52.9778 14.8299C53.804 14.8299 54.4756 15.1044 54.918 15.6223C55.3612 16.1456 55.5371 16.8758 55.4101 17.6806Z" fill="white"/>
<path d="M74.9595 12.0181H72.036C71.7571 12.0181 71.495 12.1566 71.3369 12.3885L67.3048 18.3279L65.5956 12.6204C65.4881 12.2632 65.1585 12.0181 64.7854 12.0181H61.9126C61.5635 12.0181 61.3209 12.3592 61.432 12.6879L64.6522 22.138L61.6248 26.4117C61.3867 26.7484 61.6265 27.2112 62.0378 27.2112H64.9578C65.2349 27.2112 65.4943 27.0762 65.6516 26.8488L75.3753 12.8131C75.608 12.4773 75.3691 12.0181 74.9595 12.0181Z" fill="white"/>
<path d="M84.6386 6.3988H78.5624C78.1475 6.3988 77.794 6.70084 77.7291 7.11125L75.272 22.69C75.2231 22.9973 75.4612 23.2745 75.7713 23.2745H78.8893C79.1789 23.2745 79.4267 23.0631 79.4721 22.7752L80.1694 18.3593C80.2333 17.948 80.5878 17.646 81.0026 17.646H82.925C86.9278 17.646 89.2366 15.7094 89.8407 11.8718C90.1134 10.1929 89.8513 8.8737 89.0652 7.94983C88.2026 6.93536 86.672 6.3988 84.6386 6.3988ZM85.3395 12.0886C85.0081 14.2686 83.3425 14.2686 81.7311 14.2686H80.8152L81.4593 10.1973C81.4975 9.95125 81.7089 9.77003 81.9585 9.77003H82.3787C83.4749 9.77003 84.5107 9.77003 85.0455 10.3954C85.3644 10.7685 85.4612 11.3228 85.3395 12.0886Z" fill="white"/>
<path d="M102.797 12.0184H99.89C99.6403 12.0184 99.428 12.1996 99.3907 12.4456L99.2619 13.2594L99.0576 12.9644C98.4278 12.0503 97.0242 11.7448 95.6224 11.7448C92.4075 11.7448 89.6626 14.1797 89.1278 17.5953C88.8506 19.2991 89.2442 20.9283 90.2107 22.0645C91.099 23.1092 92.3658 23.5445 93.8751 23.5445C96.4654 23.5445 97.9019 21.8789 97.9019 21.8789L97.7722 22.6872C97.7233 22.9964 97.9614 23.2735 98.2732 23.2735H100.893C101.308 23.2735 101.661 22.9715 101.726 22.5602L103.299 12.6029C103.347 12.2964 103.109 12.0184 102.797 12.0184ZM98.7422 17.6806C98.4633 19.3427 97.1424 20.4584 95.4598 20.4584C94.6168 20.4584 93.9399 20.1875 93.5064 19.674C93.0764 19.1641 92.9148 18.4383 93.0498 17.63C93.3136 15.9821 94.6532 14.8299 96.31 14.8299C97.1361 14.8299 97.8077 15.1044 98.2501 15.6223C98.6952 16.1456 98.8711 16.8758 98.7422 17.6806Z" fill="white"/>
<path d="M106.227 6.826L103.734 22.6899C103.685 22.9972 103.923 23.2744 104.233 23.2744H106.74C107.157 23.2744 107.51 22.9724 107.574 22.5611L110.033 6.98324C110.082 6.67588 109.844 6.39783 109.534 6.39783H106.727C106.479 6.39872 106.266 6.57994 106.227 6.826Z" fill="white"/>
<path d="M6.70889 26.3021L7.17349 23.351L6.13858 23.327H1.19678L4.63108 1.55131C4.64174 1.48557 4.67638 1.42427 4.72702 1.38075C4.77765 1.33722 4.8425 1.31323 4.91001 1.31323H13.2426C16.0089 1.31323 17.9179 1.88887 18.9146 3.02505C19.3819 3.55805 19.6795 4.11504 19.8234 4.72799C19.9744 5.37114 19.977 6.13955 19.8296 7.07674L19.8189 7.14514V7.74566L20.2862 8.01038C20.6797 8.21914 20.9924 8.4581 21.2323 8.73171C21.632 9.18742 21.8905 9.76662 21.9998 10.4533C22.1126 11.1595 22.0753 11.9999 21.8905 12.9513C21.6773 14.0457 21.3326 14.9989 20.8672 15.7789C20.439 16.4975 19.8935 17.0936 19.2459 17.5555C18.6277 17.9944 17.893 18.3275 17.0624 18.5407C16.2576 18.7503 15.3399 18.8561 14.3335 18.8561H13.685C13.2213 18.8561 12.7709 19.0231 12.4173 19.3224C12.0629 19.628 11.8284 20.0455 11.7564 20.5021L11.7075 20.7677L10.8867 25.9689L10.8494 26.1599C10.8396 26.2203 10.8228 26.2505 10.7979 26.271C10.7757 26.2896 10.7437 26.3021 10.7126 26.3021H6.70889Z" fill="white"/>
<path d="M20.7285 7.21423C20.7036 7.37325 20.6752 7.53581 20.6432 7.70282C19.5443 13.3446 15.7849 15.2936 10.9835 15.2936H8.53876C7.95157 15.2936 7.45677 15.72 7.36527 16.2992L6.11361 24.2374L5.75916 26.4875C5.69965 26.8677 5.9928 27.2106 6.37656 27.2106H10.7125C11.226 27.2106 11.6621 26.8375 11.743 26.3312L11.7856 26.1109L12.602 20.9301L12.6544 20.6458C12.7344 20.1377 13.1714 19.7646 13.6849 19.7646H14.3334C18.5343 19.7646 21.8229 18.059 22.7841 13.1234C23.1856 11.0616 22.9777 9.34002 21.9153 8.12922C21.5937 7.76411 21.1949 7.46119 20.7285 7.21423Z" fill="white"/>
<path d="M19.5785 6.75587C19.4106 6.70701 19.2373 6.6626 19.0597 6.62262C18.8811 6.58353 18.6981 6.54889 18.5098 6.51869C17.8506 6.41209 17.1284 6.36145 16.3547 6.36145H9.82365C9.66287 6.36145 9.51007 6.39787 9.37327 6.46361C9.07212 6.60841 8.84826 6.89356 8.79408 7.24268L7.40472 16.0425L7.36475 16.2992C7.45624 15.72 7.95105 15.2936 8.53824 15.2936H10.9829C15.7844 15.2936 19.5438 13.3438 20.6427 7.70283C20.6755 7.53583 20.7031 7.37326 20.728 7.21425C20.4499 7.06679 20.1488 6.94064 19.8245 6.83316C19.7446 6.80651 19.662 6.78074 19.5785 6.75587Z" fill="#A6A6A6"/>
<path d="M8.79434 7.24297C8.84853 6.89386 9.07239 6.6087 9.37353 6.46479C9.51122 6.39905 9.66313 6.36263 9.82392 6.36263H16.3549C17.1287 6.36263 17.8509 6.41327 18.51 6.51987C18.6984 6.55007 18.8814 6.58471 19.0599 6.6238C19.2376 6.66378 19.4108 6.70819 19.5787 6.75705C19.6622 6.78192 19.7448 6.80769 19.8257 6.83345C20.1499 6.94094 20.4511 7.06797 20.7291 7.21454C21.056 5.12962 20.7264 3.71007 19.5991 2.42465C18.3564 1.00953 16.1133 0.403687 13.2431 0.403687H4.91054C4.32424 0.403687 3.82411 0.830087 3.7335 1.41017L0.26278 23.4098C0.194378 23.845 0.530168 24.2377 0.969005 24.2377H6.11335L7.40498 16.0428L8.79434 7.24297Z" fill="white"/>
</g>
<defs>
<clipPath id="clip0_587_22542">
<rect width="110.153" height="29.315" fill="white" transform="translate(0.253906 0.403687)"/>
</clipPath>
</defs>
</svg>
