<svg width="108" height="45" viewBox="0 0 108 45" fill="none" xmlns="http://www.w3.org/2000/svg">
<path d="M93.9329 44.0921H14.6357C6.99572 44.0921 0.870605 37.9011 0.870605 30.327V13.7958C0.870605 6.15588 7.06159 0.0307617 14.6357 0.0307617H93.9329C101.573 0.0307617 107.698 6.22174 107.698 13.7958V30.327C107.698 37.9011 101.573 44.0921 93.9329 44.0921Z" fill="#5AFEAE"/>
<path d="M88.4662 14.1909L82.9997 35.069V35.1348H87.2807L92.7472 14.2567H88.4662V14.1909ZM20.8923 26.0459C20.2337 26.3752 19.575 26.507 18.8506 26.507C17.3358 26.507 16.4796 26.2435 16.3478 24.9921V24.9263C16.3478 24.8604 16.3478 24.8604 16.3478 24.7946V21.1722V20.777V18.2084V17.1546V16.7595V14.3226L12.5279 14.7836C15.0965 14.2567 16.5454 12.2809 16.5454 10.2392V8.98779H12.2644V14.8495L12.001 14.9153V25.7166C12.1327 28.7462 14.1744 30.5904 17.4016 30.5904C18.5871 30.5904 19.8385 30.3269 20.8264 29.8659L20.8923 26.0459Z" fill="#292929"/>
<path d="M21.5503 13.4003L9.56348 15.2444V18.274L21.5503 16.4299V13.4003ZM21.5503 17.8789L9.56348 19.723V22.6209L21.5503 20.7768V17.8789ZM34.986 19.262C34.7884 15.903 32.6809 13.8613 29.2561 13.8613C27.2802 13.8613 25.6337 14.6517 24.514 16.1006C23.3944 17.5496 22.8016 19.6571 22.8016 22.2257C22.8016 24.7943 23.3944 26.9019 24.514 28.3509C25.6337 29.7998 27.2802 30.5243 29.2561 30.5243C32.6809 30.5243 34.7884 28.5484 34.986 25.1236V30.195H39.267V14.2565L34.986 14.9151V19.262ZM35.2495 22.2257C35.2495 25.1895 33.6688 27.1653 31.2319 27.1653C28.7292 27.1653 27.2144 25.3212 27.2144 22.2257C27.2144 19.1302 28.7292 17.2861 31.2319 17.2861C32.4174 17.2861 33.4712 17.7472 34.1957 18.6692C34.8543 19.5254 35.2495 20.7768 35.2495 22.2257ZM51.7148 13.8613C48.29 13.8613 46.1825 15.8372 45.9849 19.262V9.58032L41.7039 10.2389V30.195H45.9849V25.1236C46.1825 28.5484 48.29 30.5243 51.7148 30.5243C55.7324 30.5243 58.1693 27.4288 58.1693 22.2257C58.1693 17.0227 55.7324 13.8613 51.7148 13.8613ZM49.8049 27.1653C47.368 27.1653 45.7873 25.2554 45.7873 22.2257C45.7873 20.7768 46.1825 19.5254 46.8411 18.6692C47.5656 17.7472 48.5535 17.2861 49.8049 17.2861C52.3076 17.2861 53.8224 19.1302 53.8224 22.2257C53.8224 25.3212 52.3076 27.1653 49.8049 27.1653ZM69.7609 13.8613C66.3361 13.8613 64.2285 15.8372 64.0309 19.262V9.58032L59.7499 10.2389V30.195H64.0309V25.1236C64.2285 28.5484 66.3361 30.5243 69.7609 30.5243C73.7784 30.5243 76.2153 27.4288 76.2153 22.2257C76.2153 17.0227 73.7784 13.8613 69.7609 13.8613ZM67.8509 27.1653C65.414 27.1653 63.8334 25.2554 63.8334 22.2257C63.8334 20.7768 64.2285 19.5254 64.8871 18.6692C65.6116 17.7472 66.5995 17.2861 67.8509 17.2861C70.3536 17.2861 71.8685 19.1302 71.8685 22.2257C71.8685 25.3212 70.3536 27.1653 67.8509 27.1653ZM76.2153 14.1906H80.7598L84.448 30.195H80.3646L76.2153 14.1906ZM96.2372 15.8372V14.5858H95.7103V14.3224H97.0934V14.5858H96.5665V15.8372H96.2372ZM97.1593 15.8372V14.2565H97.6862L97.9496 14.981C98.0155 15.1786 98.0813 15.2444 98.0813 15.3103C98.0813 15.2444 98.1472 15.1786 98.2131 14.981L98.4765 14.2565H99.0034V15.8372H98.6741V14.5858L98.2131 15.8372H97.8838L97.4886 14.5858V15.8372H97.1593Z" fill="#292929"/>
</svg>
