<svg width="115" height="17" viewBox="0 0 115 17" fill="none" xmlns="http://www.w3.org/2000/svg">
<g clip-path="url(#clip0_587_22555)">
<path d="M56.3909 3.6102C55.0165 3.08422 53.6421 2.84145 51.9847 3.2056C50.6507 3.48882 49.5996 4.01481 48.9125 5.35C49.2359 5.59276 49.4784 5.83552 49.7613 6.07828C50.206 6.4829 50.6507 6.84704 51.257 7.33258C51.7421 6.64473 52.591 5.87598 53.5208 5.83552C54.5718 5.79506 55.5824 6.40199 55.7441 7.25166C55.8249 7.6158 55.8654 9.07235 55.8654 9.07235L55.2994 9.19375C55.259 9.19375 55.1378 9.23418 54.9761 9.19375C54.9356 9.19375 54.9356 9.15327 54.8952 9.15327C54.8548 9.15327 54.8548 9.15327 54.8144 9.11284C53.5612 8.66773 52.3889 8.42499 51.257 8.42499C50.8528 8.42499 50.4486 8.46548 50.0443 8.5059C48.7912 8.70822 47.3359 9.39607 47.3359 11.6618C47.3359 12.5115 47.5381 13.1588 47.9019 13.6848C48.5891 14.6155 49.5593 15.1818 50.8528 15.1818C52.2677 15.1818 53.5208 14.8177 54.7335 13.8467C54.7739 13.8467 55.0165 13.6039 55.0973 13.5635L55.8654 12.9565V13.9276V15.1818H59.0588V7.33258C58.978 5.59276 58.0078 4.21711 56.3909 3.6102ZM55.3802 10.893C54.6931 12.1069 53.6016 12.7947 52.3081 12.7947C52.2677 12.7947 52.1868 12.7947 52.1464 12.7947C51.9038 12.7947 51.6209 12.7542 51.3379 12.7138C50.3677 12.4711 49.8422 11.7023 49.8826 10.6503L49.923 10.2053H55.7845L55.3802 10.893Z" fill="white"/>
<path d="M89.6195 3.6102C88.2453 3.08422 86.8711 2.84145 85.2134 3.2056C83.8792 3.48882 82.8285 4.01481 82.1414 5.35C82.4643 5.59276 82.7071 5.83552 82.99 6.07828C83.4349 6.4829 83.8792 6.84704 84.4856 7.33258C84.9706 6.64473 85.8198 5.87598 86.7497 5.83552C87.8004 5.79506 88.811 6.40199 88.9731 7.25166C89.0538 7.6158 89.0939 9.07235 89.0939 9.07235L88.5282 9.19375C88.4875 9.19375 88.3667 9.23418 88.2046 9.19375C88.1646 9.19375 88.1646 9.15327 88.1239 9.15327C88.0832 9.15327 88.0832 9.15327 88.0432 9.11284C86.7897 8.66773 85.6176 8.42499 84.4856 8.42499C84.0814 8.42499 83.6771 8.46548 83.2728 8.5059C82.02 8.70822 80.5645 9.39607 80.5645 11.6618C80.5645 12.5115 80.7666 13.1588 81.1308 13.6848C81.8179 14.6155 82.7879 15.1818 84.0814 15.1818C85.4962 15.1818 86.7497 14.8177 87.9625 13.8467C88.0025 13.8467 88.2453 13.6039 88.326 13.5635L89.0939 12.9565V13.9276V15.1818H92.2879V7.33258C92.2065 5.59276 91.2772 4.21711 89.6195 3.6102ZM88.6089 10.893C87.9218 12.1069 86.8304 12.7947 85.5369 12.7947C85.4962 12.7947 85.4155 12.7947 85.3748 12.7947C85.1327 12.7947 84.8498 12.7542 84.567 12.7138C83.5964 12.4711 83.0707 11.7023 83.1114 10.6503L83.1521 10.2053H89.0131L88.6089 10.893Z" fill="white"/>
<path d="M111.368 3.6102C109.993 3.08422 108.619 2.84145 106.961 3.2056C105.627 3.48882 104.577 4.01481 103.889 5.35C104.212 5.59276 104.455 5.83552 104.738 6.07828C105.183 6.4829 105.627 6.84704 106.234 7.33258C106.719 6.64473 107.568 5.87598 108.498 5.83552C109.548 5.79506 110.559 6.40199 110.721 7.25166C110.802 7.6158 110.842 9.07235 110.842 9.07235L110.276 9.19375C110.236 9.19375 110.115 9.23418 109.953 9.19375C109.913 9.19375 109.913 9.15327 109.872 9.15327C109.831 9.15327 109.832 9.15327 109.791 9.11284C108.538 8.66773 107.366 8.42499 106.234 8.42499C105.829 8.42499 105.425 8.46548 105.021 8.5059C103.768 8.70822 102.312 9.39607 102.312 11.6618C102.312 12.5115 102.515 13.1588 102.879 13.6848C103.566 14.6155 104.536 15.1818 105.829 15.1818C107.244 15.1818 108.498 14.8177 109.71 13.8467C109.751 13.8467 109.993 13.6039 110.074 13.5635L110.842 12.9565V13.9276V15.1818H114.036V7.33258C113.955 5.59276 112.985 4.21711 111.368 3.6102ZM110.357 10.893C109.67 12.1069 108.578 12.7947 107.285 12.7947C107.244 12.7947 107.164 12.7947 107.123 12.7947C106.881 12.7947 106.598 12.7542 106.315 12.7138C105.344 12.4711 104.819 11.7023 104.859 10.6503L104.9 10.2053H110.761L110.357 10.893Z" fill="white"/>
<path d="M100.939 4.01526C99.9283 4.05572 99.1598 4.50078 98.6749 5.39091C98.6348 5.47184 98.2706 6.15966 98.2706 6.15966L97.5028 5.99782V5.63367V4.1771H94.4302V15.1419H97.5028V14.1303C97.5028 13.1188 97.5028 12.0669 97.5028 11.0554V10.853C97.5028 10.4889 97.4621 10.1248 97.5028 9.72015C97.5835 8.30408 98.6749 7.25209 100.009 7.09027C100.453 7.04978 101.505 7.00935 101.626 7.00935V4.01526C101.424 4.01526 101.181 4.01526 100.939 4.01526Z" fill="white"/>
<path d="M44.9107 12.5929C44.6681 12.5929 44.3852 12.5929 44.1022 12.512C43.2937 12.3906 42.7682 11.986 42.5661 11.3386C42.4852 11.0554 42.4044 10.7722 42.4044 10.489V5.59325H42.8895C43.9 5.55278 44.9915 5.47186 46.0425 5.18864L45.3957 2.96332L42.4448 3.40839V0.0501709H38.9684V3.32746H36.543V5.59325H38.8875C38.8875 5.59325 38.8875 10.2462 38.8875 11.46C38.8875 12.2287 39.0897 12.9166 39.4939 13.5235C39.979 14.2518 40.6258 14.6968 41.6363 14.9396C42.7278 15.2228 43.7788 15.1824 44.9511 15.1824C45.032 15.1824 45.1532 15.1824 45.234 15.1824V12.5929C45.1936 12.5929 45.1532 12.5929 45.1128 12.5929C45.0724 12.5929 44.9915 12.5929 44.9107 12.5929Z" fill="white"/>
<path d="M71.6316 8.95119C71.6316 7.85872 72.3594 6.96862 73.37 6.8877C74.5828 6.7663 75.4314 7.37324 75.6742 8.50608C75.7142 8.70839 75.7142 8.91071 75.7142 9.11302C75.7142 10.7719 75.7142 12.3903 75.7142 14.0492V15.1416H78.7868V13.4422C78.7868 11.5406 78.7868 9.63898 78.7868 7.73738C78.7868 7.29233 78.7461 6.96862 78.7061 6.68539C78.4633 5.30974 77.7355 4.50053 76.4827 4.13639C75.1485 3.77224 72.9251 4.05547 71.8744 5.87618L71.3888 6.80679C71.1466 5.43112 70.3381 4.46007 69.1254 4.09593C67.7912 3.73178 65.7699 4.05547 64.7599 5.83572L64.315 6.6449V4.17685H61.0811V15.1416H64.2743C64.2743 15.1416 64.2743 10.7719 64.2743 9.19393C64.2743 8.99162 64.2743 8.78931 64.315 8.58705C64.4364 7.7778 64.962 7.17093 65.7299 6.96862C66.6191 6.72588 67.5083 7.0091 67.9933 7.65647C68.3575 8.14194 68.3976 8.66797 68.3976 9.07253C68.3976 10.6101 68.3976 15.1416 68.3976 15.1416H71.6316" fill="white"/>
<path d="M2.02118 4.29851C1.37439 5.0268 0.889308 5.79554 0.565918 6.64524L10.7527 15.1014C11.2378 14.7777 11.7229 14.4541 12.1271 14.009L12.3293 13.8067C16.2099 9.76065 13.6632 5.39094 12.1271 3.93437C9.33789 1.22352 4.89126 1.30445 2.22329 4.09621L2.02118 4.29851Z" fill="white"/>
<path d="M30.1566 8.99206C30.1566 12.9167 27.0036 16.0726 23.0825 16.0726C19.1614 16.0726 16.0083 12.9167 16.0083 8.99206C16.0083 5.10787 19.1614 1.9115 23.0825 1.9115C27.0036 1.95196 30.1566 5.10787 30.1566 8.99206Z" fill="white"/>
</g>
<defs>
<clipPath id="clip0_587_22555">
<rect width="114.005" height="16.0223" fill="white" transform="translate(0.565918 0.0501709)"/>
</clipPath>
</defs>
</svg>
