<svg width="111" height="36" viewBox="0 0 111 36" fill="none" xmlns="http://www.w3.org/2000/svg">
<g clip-path="url(#clip0_587_22565)">
<path d="M48.4637 35.373H39.54L45.1215 0.861206H54.0447L48.4637 35.373Z" fill="white"/>
<path d="M80.8125 1.70478C79.0524 1.00648 76.2607 0.235474 72.8087 0.235474C63.9963 0.235474 57.7906 4.93471 57.7526 11.6532C57.6794 16.6101 62.1956 19.3633 65.5734 21.0161C69.0259 22.705 70.1995 23.8073 70.1995 25.3127C70.1643 27.6248 67.4097 28.6905 64.8405 28.6905C61.2777 28.6905 59.3688 28.141 56.4677 26.8547L55.2927 26.3033L54.0439 34.0505C56.1369 35.004 59.9929 35.8501 63.9963 35.8872C73.3596 35.8872 79.4555 31.2607 79.5277 24.1011C79.5633 20.1724 77.1785 17.162 72.0372 14.7021C68.9161 13.123 67.0047 12.0582 67.0047 10.4425C67.0413 8.97372 68.6213 7.46928 72.1446 7.46928C75.0456 7.39559 77.1771 8.09291 78.7918 8.79072L79.5989 9.1572L80.8125 1.70478Z" fill="white"/>
<path d="M92.6731 23.1467C93.408 21.1641 96.2358 13.4906 96.2358 13.4906C96.1987 13.5643 96.9693 11.4713 97.4099 10.1865L98.0335 13.1602C98.0335 13.1602 99.7234 21.4212 100.09 23.1467C98.6957 23.1467 94.4357 23.1467 92.6731 23.1467ZM103.688 0.861206H96.7858C94.6572 0.861206 93.0401 1.48484 92.1217 3.72467L78.8667 35.3726H88.23C88.23 35.3726 89.7716 31.113 90.1029 30.1956C91.1301 30.1956 100.239 30.1956 101.56 30.1956C101.816 31.4072 102.625 35.3726 102.625 35.3726H110.887L103.688 0.861206Z" fill="white"/>
<path d="M32.0869 0.861206L23.3477 24.395L22.3927 19.622C20.7771 14.1147 15.7099 8.13112 10.0552 5.15591L18.06 35.3364H27.4965L41.523 0.861206H32.0869Z" fill="white"/>
<path d="M15.2322 0.861206H0.874908L0.728027 1.55853C11.9276 4.42248 19.3449 11.3259 22.3923 19.6235L19.2712 3.76224C18.7574 1.55804 17.1783 0.933915 15.2322 0.861206Z" fill="#FAA61A"/>
</g>
<defs>
<clipPath id="clip0_587_22565">
<rect width="110.159" height="35.6517" fill="white" transform="translate(0.728027 0.235474)"/>
</clipPath>
</defs>
</svg>
